#Comment line ignore any data following # character 
#Hierarchical Translation and Rotation (.htr) file 
[Header]	
#Header keywords are followed by a single value 
FileType HTR		#Single word string
DataType HTRS		#Translation followed by rotation and scale data
FileVersion 1		#integer
NumSegments 84		#integer
NumFrames 2		#integer
DataFrameRate 30		#integer, data frame rate in this file
EulerRotationOrder ZYX
CalibrationUnits mm
RotationUnits Degrees
GlobalAxisofGravity Y
BoneLengthAxis Y
ScaleFactor 1.00
[SegmentNames&Hierarchy]
#CHILD	PARENT
MASTER GLOBAL
root MASTER
chest root
L_mid_tent01 root
R_mid_tent01 root
spine01 root
Bip01_Neck chest
L_humerus chest
R_humerus chest
weapon_bone chest
Bip01_Head Bip01_Neck
eye_left_bone Bip01_Head
eye_right_bone Bip01_Head
L_forearm L_humerus
L_front_hand L_forearm
L_weapon_bone L_forearm
L_front_hand01_01 L_front_hand
L_front_hand02_01 L_front_hand
L_front_hand03_01 L_front_hand
L_front_hand01_02 L_front_hand01_01
L_front_hand02_02 L_front_hand02_01
L_front_hand03_02 L_front_hand03_01
R_forearm R_humerus
R_front_hand R_forearm
R_weapon_bone R_forearm
R_front_hand01_01 R_front_hand
R_front_hand02_01 R_front_hand
R_front_hand03_01 R_front_hand
R_front_hand01_02 R_front_hand01_01
R_front_hand02_02 R_front_hand02_01
R_front_hand03_02 R_front_hand03_01
null_rope01_connect L_mid_tent01
Rope1_Seg01 null_rope01_connect
Rope1_Seg02 Rope1_Seg01
Rope1_Seg03 Rope1_Seg02
Rope1_Seg04 Rope1_Seg03
Rope1_Seg05 Rope1_Seg04
Rope1_Seg06 Rope1_Seg05
Rope1_Seg07 Rope1_Seg06
Rope1_Seg09 Rope1_Seg07
L_mid_hand01 Rope1_Seg09
L_mid_hand02 Rope1_Seg09
L_mid_hand03 Rope1_Seg09
null_rope02_connect R_mid_tent01
Rope2_Seg01 null_rope02_connect
Rope2_Seg02 Rope2_Seg01
Rope2_Seg03 Rope2_Seg02
Rope2_Seg04 Rope2_Seg03
Rope2_Seg05 Rope2_Seg04
Rope2_Seg06 Rope2_Seg05
Rope2_Seg07 Rope2_Seg06
Rope2_Seg09 Rope2_Seg07
R_mid_hand01 Rope2_Seg09
R_mid_hand02 Rope2_Seg09
R_mid_hand03 Rope2_Seg09
spine02 spine01
spine03 spine02
pelvis spine03
null_rope03_connect pelvis
null_rope04_connect pelvis
Rope3_Seg01 null_rope03_connect
Rope3_Seg02 Rope3_Seg01
Rope3_Seg03 Rope3_Seg02
Rope3_Seg04 Rope3_Seg03
Rope3_Seg05 Rope3_Seg04
Rope3_Seg06 Rope3_Seg05
Rope3_Seg07 Rope3_Seg06
Rope3_Seg08 Rope3_Seg07
Rope3_Seg09 Rope3_Seg08
R_rear_hand01 Rope3_Seg09
R_rear_hand02 Rope3_Seg09
R_rear_hand03 Rope3_Seg09
Rope4_Seg01 null_rope04_connect
Rope4_Seg02 Rope4_Seg01
Rope4_Seg03 Rope4_Seg02
Rope4_Seg04 Rope4_Seg03
Rope4_Seg05 Rope4_Seg04
Rope4_Seg06 Rope4_Seg05
Rope4_Seg07 Rope4_Seg06
Rope4_Seg08 Rope4_Seg07
Rope4_Seg09 Rope4_Seg08
L_rear_hand01 Rope4_Seg09
L_rear_hand02 Rope4_Seg09
L_rear_hand03 Rope4_Seg09
[BasePosition]
#SegmentName Tx, Ty, Tz, Rx, Ry, Rz, BoneLength
MASTER 0.000000 0.000000 0.000000 -90.000000 0.000000 0.000000 10.000000 
root 0.000000 0.000000 0.000000 0.000000 0.000000 0.000000 10.000000 
chest 0.000000 0.000000 0.000000 0.000000 0.000000 0.000000 10.000000 
L_mid_tent01 0.000000 0.000000 0.000000 0.000000 0.000000 0.000000 10.000000 
R_mid_tent01 0.000000 0.000000 0.000000 0.000000 0.000000 0.000000 10.000000 
spine01 0.000000 0.000000 0.000000 0.000000 0.000000 0.000000 10.000000 
Bip01_Neck 0.000000 0.000000 0.000000 0.000000 0.000000 0.000000 10.000000 
L_humerus 0.000000 0.000000 0.000000 0.000000 0.000000 0.000000 10.000000 
R_humerus 0.000000 0.000000 0.000000 0.000000 0.000000 0.000000 10.000000 
weapon_bone 0.000000 0.000000 0.000000 0.000000 0.000000 0.000000 10.000000 
Bip01_Head 0.000000 0.000000 0.000000 0.000000 0.000000 0.000000 10.000000 
eye_left_bone 0.000000 0.000000 0.000000 0.000000 0.000000 0.000000 10.000000 
eye_right_bone 0.000000 0.000000 0.000000 0.000000 0.000000 0.000000 10.000000 
L_forearm 0.000000 0.000000 0.000000 0.000000 0.000000 0.000000 10.000000 
L_front_hand 0.000000 0.000000 0.000000 0.000000 0.000000 0.000000 10.000000 
L_weapon_bone 0.000000 0.000000 0.000000 0.000000 0.000000 0.000000 10.000000 
L_front_hand01_01 0.000000 0.000000 0.000000 0.000000 0.000000 0.000000 10.000000 
L_front_hand02_01 0.000000 0.000000 0.000000 0.000000 0.000000 0.000000 10.000000 
L_front_hand03_01 0.000000 0.000000 0.000000 0.000000 0.000000 0.000000 10.000000 
L_front_hand01_02 0.000000 0.000000 0.000000 0.000000 0.000000 0.000000 10.000000 
L_front_hand02_02 0.000000 0.000000 0.000000 0.000000 0.000000 0.000000 10.000000 
L_front_hand03_02 0.000000 0.000000 0.000000 0.000000 0.000000 0.000000 10.000000 
R_forearm 0.000000 0.000000 0.000000 0.000000 0.000000 0.000000 10.000000 
R_front_hand 0.000000 0.000000 0.000000 0.000000 0.000000 0.000000 10.000000 
R_weapon_bone 0.000000 0.000000 0.000000 0.000000 0.000000 0.000000 10.000000 
R_front_hand01_01 0.000000 0.000000 0.000000 0.000000 0.000000 0.000000 10.000000 
R_front_hand02_01 0.000000 0.000000 0.000000 0.000000 0.000000 0.000000 10.000000 
R_front_hand03_01 0.000000 0.000000 0.000000 0.000000 0.000000 0.000000 10.000000 
R_front_hand01_02 0.000000 0.000000 0.000000 0.000000 0.000000 0.000000 10.000000 
R_front_hand02_02 0.000000 0.000000 0.000000 0.000000 0.000000 0.000000 10.000000 
R_front_hand03_02 0.000000 0.000000 0.000000 0.000000 0.000000 0.000000 10.000000 
null_rope01_connect 0.000000 0.000000 0.000000 0.000000 0.000000 0.000000 10.000000 
Rope1_Seg01 0.000000 0.000000 0.000000 0.000000 0.000000 0.000000 10.000000 
Rope1_Seg02 0.000000 0.000000 0.000000 0.000000 0.000000 0.000000 10.000000 
Rope1_Seg03 0.000000 0.000000 0.000000 0.000000 0.000000 0.000000 10.000000 
Rope1_Seg04 0.000000 0.000000 0.000000 0.000000 0.000000 0.000000 10.000000 
Rope1_Seg05 0.000000 0.000000 0.000000 0.000000 0.000000 0.000000 10.000000 
Rope1_Seg06 0.000000 0.000000 0.000000 0.000000 0.000000 0.000000 10.000000 
Rope1_Seg07 0.000000 0.000000 0.000000 0.000000 0.000000 0.000000 10.000000 
Rope1_Seg09 0.000000 0.000000 0.000000 0.000000 0.000000 0.000000 10.000000 
L_mid_hand01 0.000000 0.000000 0.000000 0.000000 0.000000 0.000000 10.000000 
L_mid_hand02 0.000000 0.000000 0.000000 0.000000 0.000000 0.000000 10.000000 
L_mid_hand03 0.000000 0.000000 0.000000 0.000000 0.000000 0.000000 10.000000 
null_rope02_connect 0.000000 0.000000 0.000000 0.000000 0.000000 0.000000 10.000000 
Rope2_Seg01 0.000000 0.000000 0.000000 0.000000 0.000000 0.000000 10.000000 
Rope2_Seg02 0.000000 0.000000 0.000000 0.000000 0.000000 0.000000 10.000000 
Rope2_Seg03 0.000000 0.000000 0.000000 0.000000 0.000000 0.000000 10.000000 
Rope2_Seg04 0.000000 0.000000 0.000000 0.000000 0.000000 0.000000 10.000000 
Rope2_Seg05 0.000000 0.000000 0.000000 0.000000 0.000000 0.000000 10.000000 
Rope2_Seg06 0.000000 0.000000 0.000000 0.000000 0.000000 0.000000 10.000000 
Rope2_Seg07 0.000000 0.000000 0.000000 0.000000 0.000000 0.000000 10.000000 
Rope2_Seg09 0.000000 0.000000 0.000000 0.000000 0.000000 0.000000 10.000000 
R_mid_hand01 0.000000 0.000000 0.000000 0.000000 0.000000 0.000000 10.000000 
R_mid_hand02 0.000000 0.000000 0.000000 0.000000 0.000000 0.000000 10.000000 
R_mid_hand03 0.000000 0.000000 0.000000 0.000000 0.000000 0.000000 10.000000 
spine02 0.000000 0.000000 0.000000 0.000000 0.000000 0.000000 10.000000 
spine03 0.000000 0.000000 0.000000 0.000000 0.000000 0.000000 10.000000 
pelvis 0.000000 0.000000 0.000000 0.000000 0.000000 0.000000 10.000000 
null_rope03_connect 0.000000 0.000000 0.000000 0.000000 0.000000 0.000000 10.000000 
null_rope04_connect 0.000000 0.000000 0.000000 0.000000 0.000000 0.000000 10.000000 
Rope3_Seg01 0.000000 0.000000 0.000000 0.000000 0.000000 0.000000 10.000000 
Rope3_Seg02 0.000000 0.000000 0.000000 0.000000 0.000000 0.000000 10.000000 
Rope3_Seg03 0.000000 0.000000 0.000000 0.000000 0.000000 0.000000 10.000000 
Rope3_Seg04 0.000000 0.000000 0.000000 0.000000 0.000000 0.000000 10.000000 
Rope3_Seg05 0.000000 0.000000 0.000000 0.000000 0.000000 0.000000 10.000000 
Rope3_Seg06 0.000000 0.000000 0.000000 0.000000 0.000000 0.000000 10.000000 
Rope3_Seg07 0.000000 0.000000 0.000000 0.000000 0.000000 0.000000 10.000000 
Rope3_Seg08 0.000000 0.000000 0.000000 0.000000 0.000000 0.000000 10.000000 
Rope3_Seg09 0.000000 0.000000 0.000000 0.000000 0.000000 0.000000 10.000000 
R_rear_hand01 0.000000 0.000000 0.000000 0.000000 0.000000 0.000000 10.000000 
R_rear_hand02 0.000000 0.000000 0.000000 0.000000 0.000000 0.000000 10.000000 
R_rear_hand03 0.000000 0.000000 0.000000 0.000000 0.000000 0.000000 10.000000 
Rope4_Seg01 0.000000 0.000000 0.000000 0.000000 0.000000 0.000000 10.000000 
Rope4_Seg02 0.000000 0.000000 0.000000 0.000000 0.000000 0.000000 10.000000 
Rope4_Seg03 0.000000 0.000000 0.000000 0.000000 0.000000 0.000000 10.000000 
Rope4_Seg04 0.000000 0.000000 0.000000 0.000000 0.000000 0.000000 10.000000 
Rope4_Seg05 0.000000 0.000000 0.000000 0.000000 0.000000 0.000000 10.000000 
Rope4_Seg06 0.000000 0.000000 0.000000 0.000000 0.000000 0.000000 10.000000 
Rope4_Seg07 0.000000 0.000000 0.000000 0.000000 0.000000 0.000000 10.000000 
Rope4_Seg08 0.000000 0.000000 0.000000 0.000000 0.000000 0.000000 10.000000 
Rope4_Seg09 0.000000 0.000000 0.000000 0.000000 0.000000 0.000000 10.000000 
L_rear_hand01 0.000000 0.000000 0.000000 0.000000 0.000000 0.000000 10.000000 
L_rear_hand02 0.000000 0.000000 0.000000 0.000000 0.000000 0.000000 10.000000 
L_rear_hand03 0.000000 0.000000 0.000000 0.000000 0.000000 0.000000 10.000000 
#Beginning of Data. Separated by tabs
#Fr	Tx	Ty	Tz	Rx	Ry	Rz	SF
[MASTER]
28 536.403809 4945.332031 2342.265625 0.001660 0.001660 0.001660 5498.204102
29 554.386230 5062.881348 2341.582275 0.001660 0.001660 0.001660 5605.632813
[root]
28 -13.367442 -123.879097 510.645447 -100.274796 -16.462809 -90.682098 525.626770
29 -58.342560 -124.686920 554.093445 -97.334206 -14.258385 -90.673080 570.937988
[chest]
28 -84.512650 -34.090519 0.000000 -4.018952 0.264054 161.730087 91.129311
29 -84.512650 -34.090519 0.000000 -8.140007 -0.647972 150.545197 91.129311
[L_mid_tent01]
28 27.299538 22.177504 -249.918243 -0.716556 32.552883 67.861710 252.381134
29 27.299538 22.177504 -249.918243 -0.585530 33.571445 67.931129 252.381134
[R_mid_tent01]
28 23.228794 24.509907 226.238495 167.353485 -25.361504 70.874184 228.744751
29 23.228794 24.509907 226.238495 165.507324 -25.732315 75.085754 228.744751
[spine01]
28 -0.361383 -0.195265 0.000000 0.001845 0.001451 13.654368 0.410763
29 -0.361383 -0.195265 0.000000 0.001845 0.001451 13.654368 0.410763
[Bip01_Neck]
28 165.484543 71.581718 0.000119 176.643677 -1.657967 43.431911 180.302734
29 165.484543 71.581718 0.000119 176.643677 -1.657967 43.431911 180.302734
[L_humerus]
28 -13.983130 -135.272980 -120.471481 168.725586 45.921276 -97.734505 181.680161
29 -13.983130 -135.272980 -120.471481 171.645050 20.616444 -92.544998 181.680161
[R_humerus]
28 -13.983309 -135.273102 125.287651 -176.871445 -17.794409 -86.500679 184.909012
29 -13.983309 -135.273102 125.287651 -176.997940 -6.488082 -85.882439 184.909012
[weapon_bone]
28 235.964890 -300.705902 0.000000 0.000000 -89.951546 -128.212341 382.234833
29 235.964890 -300.705902 0.000000 0.000000 -89.951546 -128.212341 382.234833
[Bip01_Head]
28 213.334961 186.019577 7.849613 4.443150 0.096391 -43.897816 283.154938
29 213.327026 186.041855 7.559282 5.200447 6.151311 -43.834988 283.155670
[eye_left_bone]
28 -24.626970 125.451866 -64.772606 0.000000 -90.000000 -99.840431 143.318359
29 -24.626970 125.451866 -64.772606 0.000000 -90.000000 -99.840431 143.318359
[eye_right_bone]
28 -24.626970 125.451866 64.327362 0.000000 -89.965736 80.156380 143.117676
29 -24.626970 125.451866 64.327362 0.000000 -89.965736 80.156380 143.117676
[L_forearm]
28 322.776093 0.000000 -0.000119 0.000119 -0.002344 -95.807457 322.776093
29 322.776093 0.000000 -0.000119 0.000119 -0.002344 -95.807457 322.776093
[L_front_hand]
28 241.149185 -0.042021 -3.300071 -176.167114 -1.837240 -27.425299 241.171753
29 241.149185 -0.042021 -3.300071 -176.615997 -1.834495 -27.424749 241.171753
[L_weapon_bone]
28 156.183838 0.000000 0.000000 0.000014 0.000007 0.000001 156.183838
29 156.183838 0.000000 0.000000 0.000014 0.000007 0.000001 156.183838
[L_front_hand01_01]
28 86.095154 20.947098 -0.655860 -0.366593 -0.477154 75.385513 88.609184
29 86.095154 20.947098 -0.655860 -0.314221 -0.508315 69.457268 88.609184
[L_front_hand02_01]
28 86.935165 -11.437475 24.513514 154.399704 -59.883820 -61.369476 91.046425
29 86.935165 -11.437475 24.513514 146.024582 -56.930286 -51.545952 91.046425
[L_front_hand03_01]
28 86.637497 -14.123976 -20.424902 -153.913773 58.118107 -62.702770 90.126129
29 86.637497 -14.123976 -20.424902 -146.109741 55.147018 -53.367893 90.126129
[L_front_hand01_02]
28 71.020905 -0.000179 0.000030 0.001534 0.001777 -8.379025 71.020905
29 71.020905 -0.000179 0.000030 0.001284 0.001965 -23.693668 71.020905
[L_front_hand02_02]
28 71.020927 -0.000119 0.000060 0.001534 0.001777 -8.379025 71.020927
29 71.020927 -0.000119 0.000060 0.001284 0.001965 -23.693668 71.020927
[L_front_hand03_02]
28 71.020905 -0.000060 0.000060 0.001534 0.001777 -8.379025 71.020905
29 71.020905 -0.000060 0.000060 0.001284 0.001965 -23.693668 71.020905
[R_forearm]
28 322.776428 -0.000060 0.000030 0.202697 -0.063319 -73.941574 322.776428
29 322.776428 -0.000060 0.000030 0.201564 -0.066861 -72.896805 322.776428
[R_front_hand]
28 238.847015 -0.006795 2.210259 11.686275 -10.645424 -26.312996 238.857239
29 238.847015 -0.006795 2.210259 9.104284 -10.643069 -26.314383 238.857239
[R_weapon_bone]
28 155.664093 0.002503 -0.000030 0.003487 0.001180 -90.988930 155.664078
29 155.664093 0.002503 -0.000030 0.003487 0.001180 -90.988930 155.664078
[R_front_hand01_01]
28 87.624611 14.231146 22.918642 -138.750320 -52.998219 42.777645 91.683487
29 87.624611 14.231146 22.918642 -128.741898 -43.689304 29.450274 91.683487
[R_front_hand02_01]
28 89.356956 14.367283 -19.491137 139.579193 51.434795 45.462971 92.579636
29 89.356956 14.367283 -19.491137 129.909698 42.282326 32.277096 92.579636
[R_front_hand03_01]
28 87.286232 -22.307278 -0.143439 0.065239 -0.451614 -63.269840 90.091743
29 87.286232 -22.307278 -0.143439 -0.036369 -0.452673 -50.456791 90.091743
[R_front_hand01_02]
28 71.020905 0.000060 0.000119 0.001777 0.001534 8.377220 71.020905
29 71.020905 0.000060 0.000119 0.001777 0.001534 8.377220 71.020905
[R_front_hand02_02]
28 71.020844 -0.000030 -0.000119 0.001777 0.001534 8.377220 71.020836
29 71.020844 -0.000030 -0.000119 0.001777 0.001534 8.377220 71.020836
[R_front_hand03_02]
28 71.020905 0.000000 0.000030 0.001777 0.001534 8.377220 71.020905
29 71.020905 0.000000 0.000030 0.001777 0.001534 8.377220 71.020905
[null_rope01_connect]
28 328.732483 0.000000 -0.000238 -146.417786 -47.324451 -174.314682 328.732483
29 328.732483 0.000000 -0.000238 -147.305710 -49.147099 -175.950516 328.732483
[Rope1_Seg01]
28 0.000000 0.000000 0.000000 110.573532 -24.924721 163.335220 0.000000
29 0.000000 0.000000 0.000000 113.481049 -27.551298 156.738556 0.000000
[Rope1_Seg02]
28 139.999863 -0.000179 0.000000 2.281458 -12.625507 -14.501284 139.999863
29 139.999863 -0.000179 0.000000 0.376489 -11.807260 -15.467463 139.999863
[Rope1_Seg03]
28 139.999924 0.000060 -0.000060 5.939260 -17.716391 -22.401175 139.999924
29 139.999924 0.000060 -0.000060 3.953567 -16.835123 -23.415483 139.999924
[Rope1_Seg04]
28 139.999924 -0.000060 -0.000119 4.447951 -14.488703 -14.920499 139.999924
29 139.999924 -0.000060 -0.000119 3.914480 -12.654902 -17.100767 139.999924
[Rope1_Seg05]
28 139.999832 0.000119 -0.000060 0.441398 -8.042625 0.233309 139.999832
29 139.999832 0.000119 -0.000060 1.768594 -5.245131 -8.112305 139.999832
[Rope1_Seg06]
28 139.999954 0.000119 -0.000060 -0.057230 -6.797651 0.074334 139.999954
29 139.999954 0.000119 -0.000060 2.061308 -5.181492 -7.673083 139.999954
[Rope1_Seg07]
28 139.999985 0.000060 0.000000 -0.292729 -5.284721 -0.915679 139.999985
29 139.999985 0.000060 0.000000 1.995160 -4.789624 -6.288152 139.999985
[Rope1_Seg09]
28 121.602913 0.000119 -0.000089 -89.793175 -1.359789 0.847147 121.602913
29 121.602913 0.000119 -0.000089 -89.793175 -1.359789 0.847147 121.602913
[L_mid_hand01]
28 103.859421 1.038730 8.195221 129.753738 -67.188766 -38.008984 104.187431
29 103.859421 1.038730 8.195221 130.544373 -67.584534 -38.866943 104.187431
[L_mid_hand02]
28 105.572853 -4.139662 -10.864139 -168.447937 43.306499 -72.811874 106.211075
29 105.572853 -4.139662 -10.864139 -168.923172 43.409309 -73.498886 106.211075
[L_mid_hand03]
28 104.641464 17.579376 -3.913581 -6.178543 17.755550 74.357056 106.179977
29 104.641464 17.579376 -3.913581 -6.012627 17.808178 74.893677 106.179977
[null_rope02_connect]
28 328.732849 0.000179 -0.000119 -98.845154 68.373512 44.542439 328.732849
29 328.732849 0.000179 -0.000119 -109.261826 65.962257 39.546696 328.732849
[Rope2_Seg01]
28 0.000134 0.000191 0.000000 -44.219837 -72.164375 30.718082 0.000233
29 0.000136 0.000193 0.000000 -37.943783 -57.905121 25.966919 0.000236
[Rope2_Seg02]
28 139.999741 -0.000060 -0.000119 5.352638 5.588745 17.594210 139.999756
29 139.999741 -0.000060 -0.000119 2.054400 5.330509 13.816924 139.999756
[Rope2_Seg03]
28 140.000107 0.000030 0.000000 14.061135 11.802579 36.767784 140.000107
29 140.000107 0.000030 0.000000 6.925955 9.441642 31.885445 140.000107
[Rope2_Seg04]
28 139.999802 0.000000 -0.000060 9.431025 12.856803 25.858498 139.999802
29 139.999802 0.000000 -0.000060 8.119752 10.268735 30.733013 139.999802
[Rope2_Seg05]
28 139.999985 -0.000060 0.000119 3.178053 20.906746 11.481706 139.999985
29 139.999985 -0.000060 0.000119 3.426760 34.730133 16.569031 139.999985
[Rope2_Seg06]
28 139.999893 -0.000030 -0.000119 -3.687164 31.839890 13.301688 139.999893
29 139.999893 -0.000030 -0.000119 -11.531390 33.675785 14.263367 139.999893
[Rope2_Seg07]
28 139.999893 0.000060 -0.000060 -7.895948 13.907640 9.148123 139.999893
29 139.999893 0.000060 -0.000060 -9.379358 8.901283 7.973547 139.999893
[Rope2_Seg09]
28 121.338966 0.000089 -0.000060 33.793236 -1.359788 -0.847141 121.338966
29 121.338966 0.000089 -0.000060 33.793236 -1.359788 -0.847141 121.338966
[R_mid_hand01]
28 104.680779 11.144459 -10.335981 -23.980064 42.262295 59.248257 105.778534
29 104.680779 11.144459 -10.335981 -21.077955 43.559666 63.514477 105.778534
[R_mid_hand02]
28 104.070427 2.443552 8.231699 59.529907 -60.717239 27.702402 104.424065
29 104.070427 2.443552 8.231699 56.113037 -63.580833 31.562027 104.424065
[R_mid_hand03]
28 106.028137 -11.221827 -5.996406 -174.753204 14.937834 -67.669373 106.788818
29 106.028137 -11.221827 -5.996406 -175.658295 15.220737 -71.161591 106.788818
[spine02]
28 129.756927 0.001550 0.000119 -1.023899 -3.926965 6.770993 129.756927
29 129.756927 0.001550 0.000119 -1.023899 -3.926965 6.770993 129.756927
[spine03]
28 78.613785 0.087319 -4.898824 1.040681 4.146420 4.212376 78.766319
29 78.613785 0.087320 -4.898822 1.040680 4.146419 4.212375 78.766319
[pelvis]
28 169.435242 0.051022 0.000000 0.019518 -0.190233 -10.721436 169.435257
29 169.435242 0.051022 0.000000 0.019518 -0.190233 -10.721436 169.435257
[null_rope03_connect]
28 -1.257226 -2.466202 137.391083 -160.185486 -79.211372 -107.247368 137.418976
29 -1.257226 -2.466202 137.391083 -161.101227 -82.169441 -108.519325 137.418976
[null_rope04_connect]
28 -1.259640 -2.480268 -137.844437 -160.185486 -79.211372 -107.247368 137.872513
29 -1.259640 -2.480268 -137.844437 -161.101227 -82.169441 -108.519325 137.872513
[Rope3_Seg01]
28 -0.000014 -0.000019 -0.000153 -145.509277 -25.751139 -43.787762 0.000154
29 -0.000014 -0.000016 -0.000153 -135.446289 -12.598876 -47.677349 0.000154
[Rope3_Seg02]
28 139.999924 -0.000119 0.000060 18.089655 -22.660799 5.480002 139.999924
29 139.999924 -0.000119 0.000060 11.316089 -17.478243 5.838895 139.999924
[Rope3_Seg03]
28 139.999924 -0.000119 0.000119 14.728297 -15.806969 9.270321 139.999924
29 139.999924 -0.000119 0.000119 9.807125 -13.273072 6.363853 139.999924
[Rope3_Seg04]
28 139.999924 0.000119 0.000000 7.409705 -7.287066 6.689882 139.999924
29 139.999924 0.000119 0.000000 6.396711 -8.080614 4.705518 139.999924
[Rope3_Seg05]
28 139.999924 -0.000238 0.000060 4.827726 -3.341645 7.845182 139.999924
29 139.999924 -0.000238 0.000060 4.264623 -2.797772 8.266463 139.999924
[Rope3_Seg06]
28 139.999893 -0.000119 -0.000060 5.211046 -2.378516 15.535372 139.999893
29 139.999893 -0.000119 -0.000060 3.649680 0.395805 14.162519 139.999893
[Rope3_Seg07]
28 139.999771 0.000060 -0.000119 2.986831 -1.592218 19.369146 139.999771
29 139.999771 0.000060 -0.000119 2.033823 0.191913 12.783506 139.999771
[Rope3_Seg08]
28 139.999985 -0.000060 0.000000 0.428586 -0.677304 13.667057 139.999985
29 139.999985 -0.000060 0.000000 0.825467 0.137764 8.631342 139.999985
[Rope3_Seg09]
28 90.185997 -0.000179 -0.000060 89.793228 -1.359877 -0.847183 90.185997
29 90.185997 -0.000179 -0.000060 89.793228 -1.359877 -0.847183 90.185997
[R_rear_hand01]
28 103.366196 -6.073594 -10.757982 -174.043243 23.976641 -65.003036 104.101845
29 103.366196 -6.073594 -10.757982 -175.487610 24.273657 -68.532715 104.101845
[R_rear_hand02]
28 100.509819 12.039542 -7.992327 -18.533064 34.659111 62.503956 101.543350
29 100.509819 12.039542 -7.992327 -16.360668 35.627865 66.274078 101.543350
[R_rear_hand03]
28 101.539970 5.215704 5.435467 76.952385 -63.971825 15.629140 101.819031
29 101.539970 5.215704 5.435467 75.232674 -67.112587 17.511602 101.819031
[Rope4_Seg01]
28 0.000000 0.000039 0.000000 68.344124 -41.141098 -126.432526 0.000039
29 0.000000 0.000040 0.000000 62.254826 -33.270489 -123.110855 0.000040
[Rope4_Seg02]
28 139.999985 0.000060 0.000119 -12.591470 0.490953 -20.921446 139.999985
29 139.999985 0.000060 0.000119 -12.315656 3.786175 -21.767593 139.999985
[Rope4_Seg03]
28 139.999924 0.000000 -0.000238 -29.040943 9.801310 -36.475418 139.999924
29 139.999924 0.000000 -0.000238 -20.729034 11.835654 -30.689064 139.999924
[Rope4_Seg04]
28 139.999985 0.000000 0.000119 -13.872905 16.677538 -18.032827 139.999985
29 139.999985 0.000000 0.000119 -9.586305 13.381669 -15.534318 139.999985
[Rope4_Seg05]
28 139.999802 -0.000060 -0.000119 -8.603340 12.615972 -16.939951 139.999802
29 139.999802 -0.000060 -0.000119 -4.431845 9.337236 -10.035420 139.999802
[Rope4_Seg06]
28 139.999924 0.000000 0.000060 -9.894307 18.727625 -25.089355 139.999924
29 139.999924 0.000000 0.000060 -6.157148 15.920017 -17.840052 139.999924
[Rope4_Seg07]
28 139.999802 0.000000 0.000000 -1.810764 11.978816 -11.191628 139.999802
29 139.999802 0.000000 0.000000 -2.699849 17.386511 -16.983803 139.999802
[Rope4_Seg08]
28 139.999924 0.000000 0.000119 -1.471323 5.765679 -5.130467 139.999924
29 139.999924 0.000000 0.000119 -0.825580 8.777675 -8.044414 139.999924
[Rope4_Seg09]
28 90.185791 0.000060 0.000060 -135.617828 2.228885 0.850567 90.185791
29 90.185791 0.000060 0.000060 -135.617828 2.228885 0.850567 90.185791
[L_rear_hand01]
28 101.696655 -8.392275 -7.654577 -13.808590 -36.569187 109.397400 102.329041
29 101.696655 -8.392275 -7.654577 -13.120153 -36.794415 108.245636 102.329041
[L_rear_hand02]
28 102.726799 -1.568258 5.773216 72.647583 70.590691 159.713425 102.900848
29 102.726799 -1.568258 5.773216 71.814804 71.499924 158.834518 102.900848
[L_rear_hand03]
28 104.552910 9.721220 -10.420293 -177.121994 -24.509386 -107.501068 105.519653
29 104.552910 9.721220 -10.420293 -177.558807 -24.551926 -106.459045 105.519653
